<svg width="352" height="113" viewBox="0 0 352 113" fill="none" xmlns="http://www.w3.org/2000/svg">
<path d="M112.571 27.1865C112.127 27.1865 111.78 27.0622 111.531 26.8135C111.301 26.5648 111.185 26.2184 111.185 25.7742V9.43959C111.185 8.9777 111.301 8.63129 111.531 8.40035C111.78 8.15165 112.127 8.02729 112.571 8.02729C113.015 8.02729 113.352 8.15165 113.583 8.40035C113.832 8.63129 113.956 8.9777 113.956 9.43959V16.3145H124.482V9.43959C124.482 8.9777 124.597 8.63129 124.828 8.40035C125.077 8.15165 125.423 8.02729 125.868 8.02729C126.312 8.02729 126.649 8.15165 126.88 8.40035C127.111 8.63129 127.227 8.9777 127.227 9.43959V25.7742C127.227 26.2184 127.111 26.5648 126.88 26.8135C126.649 27.0622 126.312 27.1865 125.868 27.1865C125.423 27.1865 125.077 27.0622 124.828 26.8135C124.597 26.5648 124.482 26.2184 124.482 25.7742V18.6328H113.956V25.7742C113.956 26.2184 113.841 26.5648 113.61 26.8135C113.379 27.0622 113.033 27.1865 112.571 27.1865ZM137.422 27.2398C136.001 27.2398 134.775 26.9734 133.745 26.4404C132.732 25.8897 131.941 25.1169 131.373 24.1221C130.822 23.1095 130.547 21.9104 130.547 20.5248C130.547 19.1746 130.822 17.9933 131.373 16.9807C131.924 15.9681 132.679 15.1776 133.638 14.6091C134.597 14.0406 135.69 13.7564 136.916 13.7564C137.822 13.7564 138.63 13.9074 139.34 14.2094C140.051 14.4936 140.655 14.92 141.152 15.4885C141.668 16.0392 142.05 16.7142 142.298 17.5136C142.565 18.3131 142.698 19.2102 142.698 20.205C142.698 20.507 142.609 20.7379 142.431 20.8978C142.254 21.0399 141.987 21.111 141.632 21.111H132.679V19.4589H140.886L140.433 19.8319C140.433 18.9437 140.3 18.1887 140.033 17.5669C139.785 16.9452 139.403 16.4744 138.887 16.1546C138.39 15.8171 137.768 15.6484 137.022 15.6484C136.187 15.6484 135.477 15.8438 134.89 16.2346C134.322 16.6254 133.887 17.1672 133.585 17.8601C133.283 18.5529 133.132 19.3612 133.132 20.2849V20.4448C133.132 22.0081 133.496 23.1895 134.224 23.9889C134.97 24.7705 136.045 25.1614 137.448 25.1614C137.981 25.1614 138.541 25.0903 139.127 24.9482C139.731 24.8061 140.3 24.5662 140.833 24.2287C141.135 24.0511 141.401 23.9711 141.632 23.9889C141.881 24.0066 142.076 24.0866 142.218 24.2287C142.378 24.3708 142.476 24.5485 142.511 24.7616C142.547 24.9748 142.511 25.1969 142.405 25.4278C142.298 25.641 142.112 25.8364 141.845 26.0141C141.241 26.4226 140.54 26.7335 139.74 26.9467C138.941 27.1421 138.168 27.2398 137.422 27.2398ZM148.514 31.983C148.194 31.983 147.928 31.8942 147.715 31.7165C147.519 31.5566 147.404 31.3346 147.368 31.0504C147.351 30.7839 147.404 30.4908 147.528 30.171L149.34 26.094V27.2398L144.357 15.6484C144.233 15.3286 144.189 15.0266 144.224 14.7424C144.26 14.4581 144.393 14.2361 144.624 14.0762C144.855 13.8985 145.166 13.8097 145.556 13.8097C145.894 13.8097 146.16 13.8896 146.356 14.0495C146.551 14.2094 146.729 14.4848 146.889 14.8756L150.912 24.8149H150.166L154.243 14.8756C154.403 14.467 154.59 14.1916 154.803 14.0495C155.016 13.8896 155.309 13.8097 155.682 13.8097C156.002 13.8097 156.251 13.8985 156.428 14.0762C156.624 14.2361 156.739 14.4581 156.775 14.7424C156.828 15.0088 156.784 15.3019 156.642 15.6217L149.98 30.9438C149.802 31.3524 149.598 31.6277 149.367 31.7698C149.154 31.9119 148.87 31.983 148.514 31.983ZM172.582 27.1865C172.138 27.1865 171.791 27.0622 171.543 26.8135C171.312 26.5648 171.196 26.2184 171.196 25.7742V10.5321H165.547C165.174 10.5321 164.881 10.4344 164.668 10.239C164.455 10.0258 164.348 9.7327 164.348 9.35965C164.348 8.98659 164.455 8.70235 164.668 8.50694C164.881 8.31153 165.174 8.21382 165.547 8.21382H179.59C179.981 8.21382 180.283 8.31153 180.496 8.50694C180.709 8.70235 180.816 8.98659 180.816 9.35965C180.816 9.7327 180.709 10.0258 180.496 10.239C180.283 10.4344 179.981 10.5321 179.59 10.5321H173.941V25.7742C173.941 26.2184 173.825 26.5648 173.595 26.8135C173.381 27.0622 173.044 27.1865 172.582 27.1865ZM184.983 27.1865C184.557 27.1865 184.228 27.0711 183.997 26.8401C183.766 26.5914 183.651 26.2539 183.651 25.8275V9.38629C183.651 8.94218 183.766 8.60465 183.997 8.3737C184.228 8.14276 184.557 8.02729 184.983 8.02729C185.41 8.02729 185.738 8.14276 185.969 8.3737C186.218 8.60465 186.342 8.94218 186.342 9.38629V16.7675H185.969C186.36 15.7727 186.973 15.0266 187.808 14.5292C188.643 14.014 189.602 13.7564 190.686 13.7564C191.716 13.7564 192.569 13.9518 193.244 14.3426C193.937 14.7157 194.452 15.2931 194.789 16.0747C195.127 16.8386 195.296 17.8068 195.296 18.9792V25.8275C195.296 26.2539 195.18 26.5914 194.949 26.8401C194.718 27.0711 194.39 27.1865 193.963 27.1865C193.519 27.1865 193.182 27.0711 192.951 26.8401C192.72 26.5914 192.604 26.2539 192.604 25.8275V19.1391C192.604 18.0199 192.382 17.2028 191.938 16.6876C191.512 16.1724 190.837 15.9148 189.913 15.9148C188.829 15.9148 187.959 16.2524 187.302 16.9274C186.662 17.6025 186.342 18.5085 186.342 19.6454V25.8275C186.342 26.7335 185.889 27.1865 184.983 27.1865ZM205.106 27.2398C203.685 27.2398 202.459 26.9734 201.429 26.4404C200.416 25.8897 199.626 25.1169 199.057 24.1221C198.507 23.1095 198.231 21.9104 198.231 20.5248C198.231 19.1746 198.507 17.9933 199.057 16.9807C199.608 15.9681 200.363 15.1776 201.322 14.6091C202.282 14.0406 203.374 13.7564 204.6 13.7564C205.506 13.7564 206.314 13.9074 207.025 14.2094C207.736 14.4936 208.34 14.92 208.837 15.4885C209.352 16.0392 209.734 16.7142 209.983 17.5136C210.249 18.3131 210.382 19.2102 210.382 20.205C210.382 20.507 210.294 20.7379 210.116 20.8978C209.938 21.0399 209.672 21.111 209.317 21.111H200.363V19.4589H208.57L208.117 19.8319C208.117 18.9437 207.984 18.1887 207.718 17.5669C207.469 16.9452 207.087 16.4744 206.572 16.1546C206.075 15.8171 205.453 15.6484 204.707 15.6484C203.872 15.6484 203.161 15.8438 202.575 16.2346C202.006 16.6254 201.571 17.1672 201.269 17.8601C200.967 18.5529 200.816 19.3612 200.816 20.2849V20.4448C200.816 22.0081 201.18 23.1895 201.909 23.9889C202.655 24.7705 203.73 25.1614 205.133 25.1614C205.666 25.1614 206.226 25.0903 206.812 24.9482C207.416 24.8061 207.984 24.5662 208.517 24.2287C208.819 24.0511 209.086 23.9711 209.317 23.9889C209.565 24.0066 209.761 24.0866 209.903 24.2287C210.063 24.3708 210.16 24.5485 210.196 24.7616C210.231 24.9748 210.196 25.1969 210.089 25.4278C209.983 25.641 209.796 25.8364 209.53 26.0141C208.926 26.4226 208.224 26.7335 207.425 26.9467C206.625 27.1421 205.852 27.2398 205.106 27.2398ZM214.676 27.1865C214.231 27.1865 213.894 27.0711 213.663 26.8401C213.432 26.5914 213.317 26.2539 213.317 25.8275V15.1687C213.317 14.7246 213.432 14.3871 213.663 14.1561C213.894 13.9252 214.214 13.8097 214.622 13.8097C215.049 13.8097 215.368 13.9252 215.582 14.1561C215.813 14.3871 215.928 14.7246 215.928 15.1687V17.1139H215.662C215.946 16.0481 216.47 15.2398 217.234 14.6891C217.998 14.1384 218.975 13.8186 220.165 13.7298C220.485 13.712 220.733 13.7919 220.911 13.9696C221.106 14.1472 221.213 14.4226 221.231 14.7956C221.266 15.1687 221.186 15.4707 220.991 15.7016C220.796 15.9148 220.494 16.0392 220.085 16.0747L219.579 16.128C218.424 16.2346 217.545 16.5988 216.941 17.2205C216.337 17.8423 216.035 18.695 216.035 19.7786V25.8275C216.035 26.2539 215.919 26.5914 215.688 26.8401C215.475 27.0711 215.137 27.1865 214.676 27.1865ZM229.177 27.2398C227.756 27.2398 226.53 26.9734 225.5 26.4404C224.487 25.8897 223.697 25.1169 223.128 24.1221C222.578 23.1095 222.302 21.9104 222.302 20.5248C222.302 19.1746 222.578 17.9933 223.128 16.9807C223.679 15.9681 224.434 15.1776 225.393 14.6091C226.353 14.0406 227.445 13.7564 228.671 13.7564C229.577 13.7564 230.385 13.9074 231.096 14.2094C231.806 14.4936 232.41 14.92 232.908 15.4885C233.423 16.0392 233.805 16.7142 234.054 17.5136C234.32 18.3131 234.453 19.2102 234.453 20.205C234.453 20.507 234.364 20.7379 234.187 20.8978C234.009 21.0399 233.743 21.111 233.387 21.111H224.434V19.4589H232.641L232.188 19.8319C232.188 18.9437 232.055 18.1887 231.789 17.5669C231.54 16.9452 231.158 16.4744 230.643 16.1546C230.145 15.8171 229.524 15.6484 228.777 15.6484C227.943 15.6484 227.232 15.8438 226.646 16.2346C226.077 16.6254 225.642 17.1672 225.34 17.8601C225.038 18.5529 224.887 19.3612 224.887 20.2849V20.4448C224.887 22.0081 225.251 23.1895 225.98 23.9889C226.726 24.7705 227.8 25.1614 229.204 25.1614C229.737 25.1614 230.296 25.0903 230.883 24.9482C231.487 24.8061 232.055 24.5662 232.588 24.2287C232.89 24.0511 233.156 23.9711 233.387 23.9889C233.636 24.0066 233.832 24.0866 233.974 24.2287C234.134 24.3708 234.231 24.5485 234.267 24.7616C234.302 24.9748 234.267 25.1969 234.16 25.4278C234.054 25.641 233.867 25.8364 233.601 26.0141C232.997 26.4226 232.295 26.7335 231.495 26.9467C230.696 27.1421 229.923 27.2398 229.177 27.2398ZM238.693 21.9371C238.409 21.9371 238.187 21.8482 238.027 21.6706C237.885 21.4929 237.796 21.2442 237.76 20.9245L237.121 9.786C237.085 9.25306 237.201 8.82671 237.467 8.50694C237.734 8.18718 238.142 8.02729 238.693 8.02729C239.208 8.02729 239.599 8.18718 239.866 8.50694C240.132 8.82671 240.239 9.25306 240.185 9.786L239.546 20.9245C239.528 21.2442 239.439 21.4929 239.279 21.6706C239.137 21.8482 238.942 21.9371 238.693 21.9371ZM238.693 27.1066C238.178 27.1066 237.76 26.9467 237.441 26.6269C237.121 26.3072 236.961 25.8986 236.961 25.4012C236.961 24.9038 237.121 24.5041 237.441 24.2021C237.76 23.8823 238.178 23.7224 238.693 23.7224C239.208 23.7224 239.617 23.8823 239.919 24.2021C240.221 24.5041 240.372 24.9038 240.372 25.4012C240.372 25.8986 240.221 26.3072 239.919 26.6269C239.617 26.9467 239.208 27.1066 238.693 27.1066Z" fill="#FF6C6C"/>
<path d="M6.60678 77.3451C5.78504 77.3451 5.14409 77.115 4.68391 76.6549C4.25661 76.1947 4.04296 75.5537 4.04296 74.732V44.5084C4.04296 43.6538 4.25661 43.0129 4.68391 42.5856C5.14409 42.1254 5.78504 41.8953 6.60678 41.8953C7.42852 41.8953 8.05304 42.1254 8.48035 42.5856C8.94052 43.0129 9.17061 43.6538 9.17061 44.5084V74.732C9.17061 75.5537 8.95696 76.1947 8.52965 76.6549C8.10235 77.115 7.46139 77.3451 6.60678 77.3451ZM37.385 77.4437C35.7087 77.4437 34.1967 77.115 32.849 76.4577C31.5342 75.8003 30.4988 74.9128 29.7428 73.7952C28.9868 72.6777 28.6088 71.4122 28.6088 69.9988C28.6088 68.2238 29.0526 66.8269 29.9401 65.8079C30.8604 64.7561 32.356 64.0165 34.4268 63.5892C36.5304 63.129 39.3572 62.899 42.9071 62.899H45.2244V65.9558H42.9564C40.5898 65.9558 38.7162 66.0709 37.3357 66.301C35.9552 66.531 34.9691 66.9255 34.3775 67.4843C33.8187 68.0102 33.5393 68.7497 33.5393 69.703C33.5393 70.952 33.9666 71.971 34.8212 72.7598C35.6758 73.5158 36.8591 73.8938 38.3711 73.8938C39.5873 73.8938 40.6555 73.6144 41.5759 73.0557C42.4962 72.464 43.2194 71.6751 43.7453 70.689C44.3041 69.703 44.5835 68.569 44.5835 67.287V61.617C44.5835 59.7435 44.189 58.3958 43.4001 57.5741C42.6113 56.7523 41.3129 56.3415 39.5051 56.3415C38.4533 56.3415 37.3521 56.473 36.2017 56.7359C35.0841 56.9989 33.9173 57.4426 32.7011 58.0671C32.1423 58.3301 31.6657 58.4123 31.2713 58.3137C30.8768 58.215 30.5646 58.0014 30.3345 57.6727C30.1044 57.3111 29.9729 56.9331 29.9401 56.5387C29.9401 56.1114 30.0387 55.7005 30.2359 55.3061C30.466 54.9117 30.844 54.6158 31.3699 54.4186C32.8161 53.7283 34.246 53.2353 35.6594 52.9395C37.0728 52.6437 38.404 52.4957 39.653 52.4957C41.8553 52.4957 43.6631 52.8409 45.0765 53.5311C46.5228 54.2214 47.591 55.2732 48.2813 56.6866C48.9715 58.1 49.3167 59.9243 49.3167 62.1594V74.8306C49.3167 75.6195 49.1195 76.244 48.725 76.7042C48.3306 77.1315 47.7554 77.3451 46.9994 77.3451C46.2762 77.3451 45.701 77.1315 45.2737 76.7042C44.8464 76.244 44.6328 75.6195 44.6328 74.8306V71.6258H45.0765C44.8135 72.842 44.3205 73.8938 43.5974 74.7813C42.9071 75.6359 42.0361 76.2933 40.9842 76.7535C39.9324 77.2137 38.7327 77.4437 37.385 77.4437ZM58.7392 77.3451C57.9503 77.3451 57.3422 77.1315 56.9149 76.7042C56.4876 76.244 56.274 75.6195 56.274 74.8306V55.1089C56.274 54.2871 56.4876 53.6626 56.9149 53.2353C57.3422 52.808 57.9339 52.5943 58.6899 52.5943C59.4788 52.5943 60.0704 52.808 60.4648 53.2353C60.8921 53.6626 61.1058 54.2871 61.1058 55.1089V59.1518L60.5635 58.0671C61.2208 56.325 62.2398 54.961 63.6203 53.9749C65.0008 52.9888 66.6608 52.4957 68.6001 52.4957C70.6051 52.4957 72.2321 52.9723 73.4812 53.9256C74.7302 54.8788 75.5848 56.3415 76.045 58.3137H75.3548C75.9793 56.5058 77.0475 55.0924 78.5595 54.0735C80.0715 53.0217 81.8301 52.4957 83.8351 52.4957C85.6758 52.4957 87.1878 52.8573 88.3711 53.5804C89.5544 54.2707 90.4419 55.339 91.0335 56.7852C91.6252 58.1986 91.921 59.99 91.921 62.1594V74.8306C91.921 75.6195 91.6909 76.244 91.2308 76.7042C90.8035 77.1315 90.1954 77.3451 89.4065 77.3451C88.6176 77.3451 88.0095 77.1315 87.5822 76.7042C87.1549 76.244 86.9413 75.6195 86.9413 74.8306V62.4059C86.9413 60.368 86.5797 58.8724 85.8566 57.9192C85.1663 56.966 84.0159 56.4894 82.4053 56.4894C80.5975 56.4894 79.1676 57.1139 78.1158 58.363C77.064 59.612 76.5381 61.3377 76.5381 63.5399V74.8306C76.5381 75.6195 76.3244 76.244 75.8971 76.7042C75.4698 77.1315 74.8617 77.3451 74.0728 77.3451C73.284 77.3451 72.6595 77.1315 72.1993 76.7042C71.772 76.244 71.5583 75.6195 71.5583 74.8306V62.4059C71.5583 60.368 71.2132 58.8724 70.5229 57.9192C69.8327 56.966 68.6822 56.4894 67.0716 56.4894C65.2638 56.4894 63.834 57.1139 62.7822 58.363C61.7632 59.612 61.2537 61.3377 61.2537 63.5399V74.8306C61.2537 76.507 60.4155 77.3451 58.7392 77.3451ZM112.87 77.4437C111.949 77.4437 111.193 77.2301 110.602 76.8028C110.043 76.3755 109.681 75.8003 109.517 75.0771C109.385 74.354 109.533 73.5487 109.961 72.6612L122.583 45.0015C123.108 43.8839 123.733 43.0786 124.456 42.5856C125.179 42.0597 126.017 41.7967 126.971 41.7967C127.924 41.7967 128.762 42.0597 129.485 42.5856C130.208 43.0786 130.816 43.8839 131.309 45.0015L144.03 72.6612C144.457 73.5487 144.605 74.3704 144.474 75.1264C144.375 75.8496 144.046 76.4248 143.488 76.8521C142.929 77.2465 142.206 77.4437 141.318 77.4437C140.201 77.4437 139.33 77.1808 138.705 76.6549C138.113 76.129 137.587 75.3072 137.127 74.1897L134.169 67.3363L137.226 69.4564H116.666L119.723 67.3363L116.814 74.1897C116.321 75.3401 115.795 76.1783 115.236 76.7042C114.71 77.1972 113.921 77.4437 112.87 77.4437ZM126.872 50.3757L120.561 65.4135L119.23 63.4906H134.662L133.331 65.4135L126.971 50.3757H126.872ZM152.112 77.4437C150.896 77.4437 149.959 77.115 149.302 76.4577C148.677 75.8003 148.365 74.8635 148.365 73.6473V56.1443C148.365 54.9281 148.677 54.0077 149.302 53.3832C149.959 52.7258 150.863 52.3971 152.014 52.3971C153.197 52.3971 154.101 52.7258 154.725 53.3832C155.35 54.0077 155.662 54.9281 155.662 56.1443V58.9546L155.12 57.3276C155.876 55.717 156.993 54.4843 158.473 53.6297C159.985 52.7423 161.694 52.2985 163.6 52.2985C165.54 52.2985 167.134 52.6765 168.383 53.4325C169.632 54.1557 170.569 55.2732 171.193 56.7852C171.818 58.2643 172.13 60.1543 172.13 62.4552V73.6473C172.13 74.8635 171.801 75.8003 171.144 76.4577C170.519 77.115 169.599 77.4437 168.383 77.4437C167.199 77.4437 166.279 77.115 165.622 76.4577C164.997 75.8003 164.685 74.8635 164.685 73.6473V62.8003C164.685 61.124 164.373 59.9243 163.748 59.2011C163.157 58.4451 162.236 58.0671 160.987 58.0671C159.409 58.0671 158.144 58.5602 157.191 59.5463C156.27 60.5323 155.81 61.8471 155.81 63.4906V73.6473C155.81 76.1783 154.578 77.4437 152.112 77.4437ZM175.518 86.2692C174.631 86.3021 173.924 86.1542 173.398 85.8255C172.872 85.4968 172.511 85.0695 172.314 84.5436C172.116 84.0505 172.067 83.541 172.166 83.0151C172.232 82.4892 172.445 82.029 172.807 81.6346C173.168 81.2402 173.661 81.0101 174.286 80.9443C175.568 80.8457 176.488 80.4842 177.047 79.8597C177.639 79.268 177.934 78.3477 177.934 77.0986V56.1443C177.934 54.9281 178.263 54.0077 178.92 53.3832C179.578 52.7258 180.498 52.3971 181.682 52.3971C182.865 52.3971 183.769 52.7258 184.393 53.3832C185.051 54.0077 185.379 54.9281 185.379 56.1443V76.4083C185.379 78.5777 185.018 80.3691 184.295 81.7825C183.604 83.1959 182.536 84.2642 181.09 84.9873C179.644 85.7433 177.786 86.1706 175.518 86.2692ZM181.632 48.3542C180.285 48.3542 179.233 48.0419 178.477 47.4174C177.754 46.76 177.392 45.8397 177.392 44.6563C177.392 43.4402 177.754 42.5198 178.477 41.8953C179.233 41.2379 180.285 40.9092 181.632 40.9092C183.013 40.9092 184.065 41.2379 184.788 41.8953C185.511 42.5198 185.872 43.4402 185.872 44.6563C185.872 45.8397 185.511 46.76 184.788 47.4174C184.065 48.0419 183.013 48.3542 181.632 48.3542ZM199.354 77.5423C197.579 77.5423 195.985 77.1972 194.571 76.507C193.158 75.8167 192.057 74.8799 191.268 73.6966C190.479 72.5133 190.085 71.1821 190.085 69.703C190.085 67.928 190.545 66.531 191.465 65.5121C192.386 64.4603 193.881 63.7207 195.952 63.2934C198.023 62.8332 200.767 62.6031 204.186 62.6031H206.799V66.4489H204.235C202.559 66.4489 201.195 66.5475 200.143 66.7447C199.124 66.909 198.384 67.2049 197.924 67.6322C197.497 68.0595 197.283 68.6511 197.283 69.4071C197.283 70.3275 197.595 71.0835 198.22 71.6751C198.877 72.2668 199.814 72.5626 201.03 72.5626C201.984 72.5626 202.822 72.349 203.545 71.9217C204.301 71.4615 204.893 70.8534 205.32 70.0974C205.747 69.3085 205.961 68.421 205.961 67.435V61.765C205.961 60.3187 205.632 59.2997 204.975 58.7081C204.317 58.0836 203.2 57.7713 201.622 57.7713C200.735 57.7713 199.765 57.8863 198.713 58.1164C197.694 58.3137 196.56 58.6588 195.311 59.1518C194.588 59.4805 193.947 59.5627 193.388 59.3983C192.829 59.2011 192.402 58.8724 192.106 58.4123C191.81 57.9192 191.663 57.3933 191.663 56.8345C191.663 56.2429 191.827 55.6841 192.156 55.1582C192.484 54.5994 193.027 54.1885 193.783 53.9256C195.327 53.301 196.774 52.8737 198.121 52.6437C199.502 52.4136 200.767 52.2985 201.918 52.2985C204.449 52.2985 206.52 52.6765 208.13 53.4325C209.774 54.1557 211.006 55.2897 211.828 56.8345C212.65 58.3465 213.061 60.3023 213.061 62.7017V73.6473C213.061 74.8635 212.765 75.8003 212.173 76.4577C211.581 77.115 210.727 77.4437 209.609 77.4437C208.492 77.4437 207.621 77.115 206.996 76.4577C206.405 75.8003 206.109 74.8635 206.109 73.6473V71.823L206.454 72.1189C206.257 73.2364 205.829 74.2061 205.172 75.0278C204.547 75.8167 203.742 76.4412 202.756 76.9014C201.77 77.3287 200.636 77.5423 199.354 77.5423ZM227.341 77.5423C224.416 77.5423 222.23 76.737 220.784 75.1264C219.337 73.483 218.614 71.0506 218.614 67.8294V45.5931C218.614 44.3441 218.927 43.4073 219.551 42.7828C220.208 42.1254 221.145 41.7967 222.361 41.7967C223.545 41.7967 224.449 42.1254 225.073 42.7828C225.731 43.4073 226.059 44.3441 226.059 45.5931V67.5336C226.059 68.8812 226.339 69.8837 226.897 70.5411C227.489 71.1657 228.262 71.4779 229.215 71.4779C229.478 71.4779 229.724 71.4615 229.954 71.4286C230.184 71.3957 230.431 71.3793 230.694 71.3793C231.22 71.3136 231.581 71.4779 231.779 71.8723C232.009 72.2339 232.124 72.9735 232.124 74.091C232.124 75.0771 231.926 75.8331 231.532 76.359C231.138 76.8521 230.53 77.1808 229.708 77.3451C229.379 77.378 229.001 77.4109 228.574 77.4437C228.146 77.5095 227.736 77.5423 227.341 77.5423ZM253.438 77C252.156 77 251.17 76.6549 250.48 75.9646C249.79 75.2743 249.445 74.2883 249.445 73.0063V46.2341C249.445 44.9522 249.79 43.9661 250.48 43.2758C251.17 42.5856 252.156 42.2404 253.438 42.2404H265.37C267.835 42.2404 269.939 42.602 271.681 43.3251C273.423 44.0483 274.738 45.0837 275.625 46.4313C276.546 47.779 277.006 49.3896 277.006 51.2631C277.006 53.3339 276.414 55.0924 275.231 56.5387C274.047 57.985 272.42 58.9546 270.35 59.4477V58.6588C272.749 59.0861 274.606 60.0393 275.921 61.5184C277.269 62.9647 277.942 64.8547 277.942 67.1884C277.942 70.2782 276.874 72.6941 274.738 74.4362C272.601 76.1454 269.659 77 265.912 77H253.438ZM256.742 71.33H264.877C266.849 71.33 268.295 70.952 269.216 70.196C270.136 69.4071 270.596 68.2567 270.596 66.7447C270.596 65.2327 270.136 64.0987 269.216 63.3427C268.295 62.5867 266.849 62.2087 264.877 62.2087H256.742V71.33ZM256.742 56.5387H264.039C265.945 56.5387 267.358 56.1771 268.279 55.454C269.199 54.7309 269.659 53.6462 269.659 52.1999C269.659 50.7865 269.199 49.7183 268.279 48.9951C267.358 48.272 265.945 47.9104 264.039 47.9104H256.742V56.5387ZM291.27 77.5423C289.495 77.5423 287.901 77.1972 286.488 76.507C285.074 75.8167 283.973 74.8799 283.184 73.6966C282.395 72.5133 282.001 71.1821 282.001 69.703C282.001 67.928 282.461 66.531 283.381 65.5121C284.302 64.4603 285.797 63.7207 287.868 63.2934C289.939 62.8332 292.683 62.6031 296.102 62.6031H298.715V66.4489H296.151C294.475 66.4489 293.111 66.5475 292.059 66.7447C291.04 66.909 290.3 67.2049 289.84 67.6322C289.413 68.0595 289.199 68.6511 289.199 69.4071C289.199 70.3275 289.512 71.0835 290.136 71.6751C290.793 72.2668 291.73 72.5626 292.946 72.5626C293.9 72.5626 294.738 72.349 295.461 71.9217C296.217 71.4615 296.809 70.8534 297.236 70.0974C297.663 69.3085 297.877 68.421 297.877 67.435V61.765C297.877 60.3187 297.548 59.2997 296.891 58.7081C296.233 58.0836 295.116 57.7713 293.538 57.7713C292.651 57.7713 291.681 57.8863 290.629 58.1164C289.61 58.3137 288.476 58.6588 287.227 59.1518C286.504 59.4805 285.863 59.5627 285.304 59.3983C284.745 59.2011 284.318 58.8724 284.022 58.4123C283.726 57.9192 283.579 57.3933 283.579 56.8345C283.579 56.2429 283.743 55.6841 284.072 55.1582C284.4 54.5994 284.943 54.1885 285.699 53.9256C287.244 53.301 288.69 52.8737 290.037 52.6437C291.418 52.4136 292.683 52.2985 293.834 52.2985C296.365 52.2985 298.436 52.6765 300.046 53.4325C301.69 54.1557 302.922 55.2897 303.744 56.8345C304.566 58.3465 304.977 60.3023 304.977 62.7017V73.6473C304.977 74.8635 304.681 75.8003 304.089 76.4577C303.498 77.115 302.643 77.4437 301.525 77.4437C300.408 77.4437 299.537 77.115 298.912 76.4577C298.321 75.8003 298.025 74.8635 298.025 73.6473V71.823L298.37 72.1189C298.173 73.2364 297.745 74.2061 297.088 75.0278C296.463 75.8167 295.658 76.4412 294.672 76.9014C293.686 77.3287 292.552 77.5423 291.27 77.5423ZM314.376 77.4437C313.16 77.4437 312.223 77.115 311.566 76.4577C310.941 75.8003 310.629 74.8635 310.629 73.6473V56.1443C310.629 54.9281 310.941 54.0077 311.566 53.3832C312.223 52.7258 313.127 52.3971 314.277 52.3971C315.461 52.3971 316.365 52.7258 316.989 53.3832C317.614 54.0077 317.926 54.9281 317.926 56.1443V59.2997L317.384 57.3276C318.041 55.8156 319.06 54.5994 320.44 53.679C321.821 52.7587 323.448 52.2985 325.322 52.2985C327.195 52.2985 328.756 52.7423 330.006 53.6297C331.255 54.5172 332.142 55.8813 332.668 57.722H331.978C332.701 56.0457 333.802 54.7309 335.281 53.7777C336.793 52.7916 338.519 52.2985 340.458 52.2985C342.332 52.2985 343.86 52.6765 345.043 53.4325C346.26 54.1557 347.163 55.2732 347.755 56.7852C348.347 58.2643 348.643 60.1543 348.643 62.4552V73.6473C348.643 74.8635 348.314 75.8003 347.656 76.4577C347.032 77.115 346.128 77.4437 344.945 77.4437C343.729 77.4437 342.792 77.115 342.134 76.4577C341.51 75.8003 341.198 74.8635 341.198 73.6473V62.7017C341.198 61.0911 340.935 59.9243 340.409 59.2011C339.916 58.4451 339.061 58.0671 337.845 58.0671C336.432 58.0671 335.33 58.5602 334.542 59.5463C333.753 60.5323 333.358 61.9293 333.358 63.7371V73.6473C333.358 74.8635 333.03 75.8003 332.372 76.4577C331.748 77.115 330.844 77.4437 329.66 77.4437C328.477 77.4437 327.557 77.115 326.899 76.4577C326.242 75.8003 325.913 74.8635 325.913 73.6473V62.7017C325.913 61.0911 325.65 59.9243 325.124 59.2011C324.631 58.4451 323.777 58.0671 322.561 58.0671C321.147 58.0671 320.046 58.5602 319.257 59.5463C318.468 60.5323 318.074 61.9293 318.074 63.7371V73.6473C318.074 76.1783 316.841 77.4437 314.376 77.4437Z" fill="#5988FF"/>
<path d="M40.8445 108.099C40.638 108.099 40.4784 108.042 40.3658 107.93C40.2531 107.808 40.1968 107.639 40.1968 107.423V98.6509C40.1968 98.4256 40.2531 98.2566 40.3658 98.144C40.4784 98.0314 40.638 97.975 40.8445 97.975C41.0604 97.975 41.2246 98.0314 41.3373 98.144C41.4499 98.2566 41.5062 98.4256 41.5062 98.6509V107.423C41.5062 107.639 41.4499 107.808 41.3373 107.93C41.234 108.042 41.0698 108.099 40.8445 108.099ZM49.5383 108.127C48.8343 108.127 48.2993 107.92 47.9332 107.507C47.5671 107.085 47.3841 106.479 47.3841 105.691V98.6227C47.3841 98.4068 47.4404 98.2473 47.553 98.144C47.6657 98.0314 47.8206 97.975 48.0177 97.975C48.2242 97.975 48.3838 98.0314 48.4964 98.144C48.609 98.2473 48.6654 98.4068 48.6654 98.6227V105.592C48.6654 106.08 48.7639 106.447 48.961 106.691C49.1676 106.925 49.4585 107.043 49.834 107.043C49.9185 107.043 49.9936 107.043 50.0593 107.043C50.125 107.033 50.1907 107.024 50.2564 107.014C50.3597 107.005 50.4348 107.033 50.4817 107.099C50.5286 107.165 50.5521 107.296 50.5521 107.493C50.5521 107.671 50.5098 107.812 50.4254 107.916C50.3503 108.009 50.2236 108.07 50.0452 108.099C49.9607 108.108 49.8763 108.113 49.7918 108.113C49.7073 108.122 49.6228 108.127 49.5383 108.127ZM54.4649 108.127C53.7891 108.127 53.2024 107.981 52.7049 107.69C52.2074 107.399 51.8226 106.986 51.5503 106.451C51.2781 105.916 51.142 105.287 51.142 104.564C51.142 104.02 51.2171 103.532 51.3673 103.1C51.5269 102.659 51.7522 102.284 52.0431 101.974C52.3341 101.664 52.6814 101.429 53.0851 101.27C53.4981 101.101 53.958 101.016 54.4649 101.016C55.1407 101.016 55.7274 101.162 56.2249 101.453C56.7224 101.744 57.1072 102.157 57.3795 102.692C57.6517 103.217 57.7878 103.842 57.7878 104.564C57.7878 105.109 57.708 105.602 57.5484 106.043C57.3982 106.484 57.1776 106.86 56.8867 107.169C56.5957 107.479 56.2437 107.718 55.8307 107.887C55.427 108.047 54.9718 108.127 54.4649 108.127ZM54.4649 107.113C54.8779 107.113 55.2346 107.014 55.535 106.817C55.8447 106.62 56.0794 106.334 56.239 105.958C56.4079 105.583 56.4924 105.118 56.4924 104.564C56.4924 103.738 56.3094 103.11 55.9433 102.678C55.5772 102.246 55.0844 102.03 54.4649 102.03C54.0613 102.03 53.7046 102.129 53.3948 102.326C53.0944 102.513 52.8598 102.795 52.6908 103.171C52.5219 103.546 52.4374 104.011 52.4374 104.564C52.4374 105.391 52.6204 106.024 52.9865 106.465C53.362 106.897 53.8548 107.113 54.4649 107.113ZM61.9239 108.099C61.7455 108.099 61.5907 108.052 61.4593 107.958C61.3278 107.864 61.2152 107.714 61.1213 107.507L58.7277 101.932C58.662 101.772 58.6386 101.626 58.6573 101.495C58.6761 101.364 58.7371 101.256 58.8404 101.171C58.953 101.087 59.1032 101.044 59.2909 101.044C59.4505 101.044 59.5772 101.082 59.6711 101.157C59.765 101.232 59.8541 101.364 59.9386 101.551L62.1492 107H61.7549L64.0218 101.551C64.0969 101.364 64.1814 101.232 64.2753 101.157C64.3785 101.082 64.5193 101.044 64.6977 101.044C64.8572 101.044 64.9793 101.087 65.0637 101.171C65.1576 101.256 65.2139 101.364 65.2327 101.495C65.2515 101.626 65.2233 101.767 65.1482 101.917L62.7405 107.507C62.6561 107.714 62.5434 107.864 62.4026 107.958C62.2712 108.052 62.1116 108.099 61.9239 108.099ZM69.6646 108.127C68.923 108.127 68.2848 107.986 67.7497 107.704C67.2241 107.413 66.8157 107.005 66.5248 106.479C66.2338 105.944 66.0883 105.315 66.0883 104.593C66.0883 103.879 66.2291 103.255 66.5107 102.72C66.8017 102.185 67.1959 101.767 67.6934 101.467C68.2003 101.167 68.7776 101.016 69.4252 101.016C69.8852 101.016 70.2982 101.096 70.6643 101.256C71.0397 101.406 71.3589 101.626 71.6217 101.917C71.8845 102.208 72.0817 102.565 72.2131 102.988C72.3539 103.401 72.4243 103.87 72.4243 104.396C72.4243 104.546 72.3773 104.663 72.2835 104.748C72.199 104.823 72.0723 104.86 71.9033 104.86H67.088V104.044H71.5795L71.3401 104.241C71.3401 103.753 71.265 103.34 71.1148 103.002C70.974 102.654 70.7628 102.391 70.4812 102.213C70.209 102.035 69.8664 101.946 69.4534 101.946C69.0028 101.946 68.618 102.054 68.2988 102.269C67.9797 102.476 67.7356 102.772 67.5667 103.156C67.3977 103.532 67.3132 103.968 67.3132 104.466V104.55C67.3132 105.395 67.515 106.033 67.9187 106.465C68.3223 106.897 68.9043 107.113 69.6646 107.113C69.965 107.113 70.27 107.075 70.5798 107C70.8989 106.925 71.204 106.789 71.495 106.592C71.6358 106.508 71.7625 106.47 71.8752 106.479C71.9972 106.479 72.0957 106.517 72.1708 106.592C72.2459 106.658 72.2929 106.742 72.3116 106.845C72.3304 106.939 72.3163 107.043 72.2694 107.155C72.2225 107.268 72.1333 107.366 72.0019 107.451C71.6921 107.667 71.3213 107.836 70.8896 107.958C70.4672 108.07 70.0588 108.127 69.6646 108.127ZM80.9416 108.099C80.7257 108.099 80.5614 108.042 80.4488 107.93C80.3361 107.808 80.2798 107.639 80.2798 107.423V99.1859H77.1963C77.0179 99.1859 76.8771 99.139 76.7739 99.0451C76.6706 98.9419 76.619 98.8011 76.619 98.6227C76.619 98.4444 76.6706 98.3083 76.7739 98.2144C76.8771 98.1205 77.0179 98.0736 77.1963 98.0736H84.6728C84.8605 98.0736 85.0013 98.1205 85.0952 98.2144C85.1984 98.3083 85.25 98.4444 85.25 98.6227C85.25 98.8011 85.1984 98.9419 85.0952 99.0451C85.0013 99.139 84.8605 99.1859 84.6728 99.1859H81.5892V107.423C81.5892 107.639 81.5329 107.808 81.4203 107.93C81.317 108.042 81.1575 108.099 80.9416 108.099ZM88.3233 108.127C87.5818 108.127 86.9435 107.986 86.4085 107.704C85.8828 107.413 85.4745 107.005 85.1835 106.479C84.8925 105.944 84.747 105.315 84.747 104.593C84.747 103.879 84.8878 103.255 85.1694 102.72C85.4604 102.185 85.8546 101.767 86.3521 101.467C86.859 101.167 87.4363 101.016 88.084 101.016C88.5439 101.016 88.9569 101.096 89.323 101.256C89.6985 101.406 90.0176 101.626 90.2805 101.917C90.5433 102.208 90.7404 102.565 90.8718 102.988C91.0126 103.401 91.083 103.87 91.083 104.396C91.083 104.546 91.0361 104.663 90.9422 104.748C90.8577 104.823 90.731 104.86 90.5621 104.86H85.7467V104.044H90.2382L89.9989 104.241C89.9989 103.753 89.9238 103.34 89.7736 103.002C89.6328 102.654 89.4216 102.391 89.14 102.213C88.8678 102.035 88.5252 101.946 88.1121 101.946C87.6616 101.946 87.2767 102.054 86.9576 102.269C86.6384 102.476 86.3944 102.772 86.2254 103.156C86.0565 103.532 85.972 103.968 85.972 104.466V104.55C85.972 105.395 86.1738 106.033 86.5774 106.465C86.981 106.897 87.563 107.113 88.3233 107.113C88.6237 107.113 88.9288 107.075 89.2385 107C89.5577 106.925 89.8628 106.789 90.1537 106.592C90.2945 106.508 90.4213 106.47 90.5339 106.479C90.6559 106.479 90.7545 106.517 90.8296 106.592C90.9047 106.658 90.9516 106.742 90.9704 106.845C90.9892 106.939 90.9751 107.043 90.9281 107.155C90.8812 107.268 90.792 107.366 90.6606 107.451C90.3509 107.667 89.9801 107.836 89.5483 107.958C89.1259 108.07 88.7176 108.127 88.3233 108.127ZM95.6475 108.127C94.9529 108.127 94.3521 107.981 93.8452 107.69C93.3384 107.39 92.9488 106.972 92.6766 106.437C92.4044 105.893 92.2683 105.254 92.2683 104.522C92.2683 103.978 92.3434 103.49 92.4936 103.058C92.6531 102.626 92.8784 102.26 93.1694 101.96C93.4604 101.65 93.8124 101.415 94.2254 101.256C94.6478 101.096 95.1218 101.016 95.6475 101.016C95.976 101.016 96.3233 101.068 96.6894 101.171C97.0555 101.274 97.3934 101.443 97.7032 101.678C97.8064 101.753 97.8721 101.842 97.9003 101.946C97.9284 102.039 97.9284 102.138 97.9003 102.241C97.8815 102.345 97.8346 102.434 97.7595 102.509C97.6938 102.575 97.6046 102.612 97.492 102.621C97.3887 102.631 97.2761 102.598 97.154 102.523C96.9288 102.354 96.6894 102.232 96.436 102.157C96.1919 102.082 95.9572 102.044 95.732 102.044C95.3846 102.044 95.0749 102.1 94.8027 102.213C94.5398 102.326 94.3146 102.49 94.1268 102.706C93.9485 102.912 93.8124 103.171 93.7185 103.48C93.6246 103.781 93.5777 104.133 93.5777 104.536C93.5777 105.334 93.7654 105.963 94.1409 106.423C94.5164 106.874 95.0467 107.099 95.732 107.099C95.9572 107.099 96.1919 107.066 96.436 107C96.68 106.925 96.9194 106.803 97.154 106.634C97.2761 106.559 97.3887 106.531 97.492 106.55C97.5952 106.559 97.6797 106.601 97.7454 106.676C97.8205 106.742 97.8674 106.827 97.8862 106.93C97.905 107.024 97.8956 107.122 97.858 107.226C97.8299 107.329 97.7642 107.413 97.6609 107.479C97.3605 107.704 97.032 107.869 96.6753 107.972C96.3186 108.075 95.976 108.127 95.6475 108.127ZM99.8552 108.099C99.6581 108.099 99.5032 108.042 99.3905 107.93C99.2779 107.817 99.2216 107.653 99.2216 107.437V98.6227C99.2216 98.4068 99.2779 98.2473 99.3905 98.144C99.5032 98.0314 99.6581 97.975 99.8552 97.975C100.062 97.975 100.221 98.0314 100.334 98.144C100.447 98.2473 100.503 98.4068 100.503 98.6227V102.636H100.32C100.517 102.1 100.836 101.697 101.277 101.425C101.728 101.152 102.239 101.016 102.812 101.016C103.366 101.016 103.821 101.12 104.178 101.326C104.534 101.523 104.802 101.824 104.98 102.227C105.159 102.631 105.248 103.138 105.248 103.748V107.437C105.248 107.653 105.192 107.817 105.079 107.93C104.976 108.042 104.821 108.099 104.614 108.099C104.408 108.099 104.248 108.042 104.136 107.93C104.023 107.817 103.967 107.653 103.967 107.437V103.818C103.967 103.208 103.849 102.762 103.615 102.481C103.38 102.199 103.004 102.058 102.488 102.058C101.887 102.058 101.404 102.246 101.038 102.621C100.681 102.988 100.503 103.485 100.503 104.114V107.437C100.503 107.878 100.287 108.099 99.8552 108.099ZM107.913 108.099C107.716 108.099 107.561 108.042 107.448 107.93C107.335 107.817 107.279 107.653 107.279 107.437V101.692C107.279 101.476 107.335 101.317 107.448 101.213C107.561 101.101 107.716 101.044 107.913 101.044C108.11 101.044 108.26 101.101 108.363 101.213C108.476 101.317 108.532 101.476 108.532 101.692V102.847L108.377 102.636C108.574 102.1 108.894 101.697 109.335 101.425C109.785 101.152 110.297 101.016 110.869 101.016C111.423 101.016 111.879 101.115 112.235 101.312C112.592 101.509 112.859 101.809 113.038 102.213C113.216 102.617 113.305 103.128 113.305 103.748V107.437C113.305 107.653 113.249 107.817 113.136 107.93C113.033 108.042 112.878 108.099 112.672 108.099C112.465 108.099 112.306 108.042 112.193 107.93C112.08 107.817 112.024 107.653 112.024 107.437V103.818C112.024 103.208 111.907 102.762 111.672 102.481C111.437 102.199 111.062 102.058 110.546 102.058C109.945 102.058 109.461 102.246 109.095 102.621C108.739 102.988 108.56 103.485 108.56 104.114V107.437C108.56 107.878 108.344 108.099 107.913 108.099ZM118.251 108.127C117.575 108.127 116.989 107.981 116.491 107.69C115.994 107.399 115.609 106.986 115.337 106.451C115.064 105.916 114.928 105.287 114.928 104.564C114.928 104.02 115.003 103.532 115.154 103.1C115.313 102.659 115.538 102.284 115.829 101.974C116.12 101.664 116.468 101.429 116.871 101.27C117.284 101.101 117.744 101.016 118.251 101.016C118.927 101.016 119.514 101.162 120.011 101.453C120.509 101.744 120.893 102.157 121.166 102.692C121.438 103.217 121.574 103.842 121.574 104.564C121.574 105.109 121.494 105.602 121.335 106.043C121.184 106.484 120.964 106.86 120.673 107.169C120.382 107.479 120.03 107.718 119.617 107.887C119.213 108.047 118.758 108.127 118.251 108.127ZM118.251 107.113C118.664 107.113 119.021 107.014 119.321 106.817C119.631 106.62 119.866 106.334 120.025 105.958C120.194 105.583 120.279 105.118 120.279 104.564C120.279 103.738 120.096 103.11 119.73 102.678C119.363 102.246 118.871 102.03 118.251 102.03C117.848 102.03 117.491 102.129 117.181 102.326C116.881 102.513 116.646 102.795 116.477 103.171C116.308 103.546 116.224 104.011 116.224 104.564C116.224 105.391 116.407 106.024 116.773 106.465C117.148 106.897 117.641 107.113 118.251 107.113ZM125.37 108.127C124.666 108.127 124.131 107.92 123.764 107.507C123.398 107.085 123.215 106.479 123.215 105.691V98.6227C123.215 98.4068 123.272 98.2473 123.384 98.144C123.497 98.0314 123.652 97.975 123.849 97.975C124.055 97.975 124.215 98.0314 124.328 98.144C124.44 98.2473 124.497 98.4068 124.497 98.6227V105.592C124.497 106.08 124.595 106.447 124.792 106.691C124.999 106.925 125.29 107.043 125.665 107.043C125.75 107.043 125.825 107.043 125.891 107.043C125.956 107.033 126.022 107.024 126.088 107.014C126.191 107.005 126.266 107.033 126.313 107.099C126.36 107.165 126.383 107.296 126.383 107.493C126.383 107.671 126.341 107.812 126.257 107.916C126.182 108.009 126.055 108.07 125.876 108.099C125.792 108.108 125.708 108.113 125.623 108.113C125.539 108.122 125.454 108.127 125.37 108.127ZM130.296 108.127C129.62 108.127 129.034 107.981 128.536 107.69C128.039 107.399 127.654 106.986 127.382 106.451C127.109 105.916 126.973 105.287 126.973 104.564C126.973 104.02 127.048 103.532 127.199 103.1C127.358 102.659 127.583 102.284 127.874 101.974C128.165 101.664 128.513 101.429 128.916 101.27C129.329 101.101 129.789 101.016 130.296 101.016C130.972 101.016 131.559 101.162 132.056 101.453C132.554 101.744 132.938 102.157 133.211 102.692C133.483 103.217 133.619 103.842 133.619 104.564C133.619 105.109 133.539 105.602 133.38 106.043C133.229 106.484 133.009 106.86 132.718 107.169C132.427 107.479 132.075 107.718 131.662 107.887C131.258 108.047 130.803 108.127 130.296 108.127ZM130.296 107.113C130.709 107.113 131.066 107.014 131.366 106.817C131.676 106.62 131.911 106.334 132.07 105.958C132.239 105.583 132.324 105.118 132.324 104.564C132.324 103.738 132.141 103.11 131.775 102.678C131.408 102.246 130.916 102.03 130.296 102.03C129.893 102.03 129.536 102.129 129.226 102.326C128.926 102.513 128.691 102.795 128.522 103.171C128.353 103.546 128.269 104.011 128.269 104.564C128.269 105.391 128.452 106.024 128.818 106.465C129.193 106.897 129.686 107.113 130.296 107.113ZM138.344 110.661C137.837 110.661 137.344 110.605 136.865 110.492C136.396 110.38 135.969 110.206 135.584 109.971C135.462 109.896 135.378 109.807 135.331 109.704C135.293 109.61 135.284 109.511 135.303 109.408C135.331 109.305 135.378 109.211 135.443 109.126C135.518 109.051 135.603 109 135.697 108.972C135.8 108.953 135.903 108.976 136.007 109.042C136.42 109.277 136.814 109.436 137.189 109.521C137.565 109.605 137.921 109.647 138.259 109.647C138.926 109.647 139.423 109.474 139.752 109.126C140.09 108.788 140.259 108.291 140.259 107.634V106.113H140.385C140.254 106.639 139.958 107.057 139.498 107.366C139.048 107.676 138.522 107.831 137.921 107.831C137.302 107.831 136.762 107.69 136.302 107.409C135.842 107.118 135.486 106.719 135.232 106.212C134.979 105.696 134.852 105.1 134.852 104.424C134.852 103.907 134.922 103.443 135.063 103.03C135.213 102.607 135.42 102.251 135.683 101.96C135.955 101.659 136.279 101.429 136.654 101.27C137.03 101.101 137.452 101.016 137.921 101.016C138.532 101.016 139.062 101.171 139.512 101.481C139.963 101.791 140.254 102.208 140.385 102.734L140.231 102.931V101.692C140.231 101.476 140.287 101.317 140.4 101.213C140.512 101.101 140.672 101.044 140.878 101.044C141.075 101.044 141.23 101.101 141.343 101.213C141.456 101.317 141.512 101.476 141.512 101.692V107.465C141.512 108.526 141.24 109.324 140.695 109.859C140.16 110.394 139.376 110.661 138.344 110.661ZM138.203 106.817C138.625 106.817 138.987 106.723 139.287 106.536C139.597 106.339 139.832 106.062 139.991 105.705C140.16 105.339 140.245 104.912 140.245 104.424C140.245 103.682 140.062 103.1 139.696 102.678C139.329 102.246 138.832 102.03 138.203 102.03C137.781 102.03 137.415 102.129 137.105 102.326C136.804 102.513 136.57 102.786 136.401 103.142C136.232 103.499 136.147 103.926 136.147 104.424C136.147 105.156 136.33 105.738 136.696 106.17C137.072 106.601 137.574 106.817 138.203 106.817ZM145.142 110.633C144.992 110.633 144.865 110.591 144.762 110.506C144.668 110.431 144.612 110.323 144.593 110.182C144.584 110.051 144.612 109.91 144.678 109.76L145.635 107.592V108.127L142.974 101.932C142.908 101.772 142.885 101.626 142.904 101.495C142.922 101.364 142.983 101.256 143.087 101.171C143.199 101.087 143.349 101.044 143.537 101.044C143.697 101.044 143.823 101.082 143.917 101.157C144.011 101.232 144.1 101.364 144.185 101.551L146.395 107H146.001L148.254 101.551C148.329 101.364 148.418 101.232 148.521 101.157C148.625 101.082 148.766 101.044 148.944 101.044C149.103 101.044 149.225 101.087 149.31 101.171C149.404 101.256 149.46 101.364 149.479 101.495C149.498 101.626 149.47 101.767 149.394 101.917L145.846 110.126C145.752 110.323 145.654 110.455 145.551 110.52C145.457 110.595 145.321 110.633 145.142 110.633ZM150.912 109.38C150.818 109.502 150.715 109.572 150.602 109.591C150.499 109.61 150.405 109.591 150.321 109.535C150.245 109.478 150.203 109.394 150.194 109.281C150.184 109.169 150.231 109.047 150.335 108.915C150.494 108.709 150.602 108.502 150.658 108.296C150.724 108.089 150.757 107.897 150.757 107.718L150.813 108.056C150.551 108.056 150.335 107.981 150.166 107.831C150.006 107.671 149.926 107.465 149.926 107.212C149.926 106.967 150.001 106.77 150.152 106.62C150.302 106.47 150.504 106.395 150.757 106.395C151.01 106.395 151.212 106.484 151.362 106.662C151.522 106.831 151.602 107.085 151.602 107.423C151.602 107.62 151.578 107.826 151.531 108.042C151.494 108.268 151.428 108.493 151.334 108.718C151.24 108.943 151.1 109.164 150.912 109.38ZM156.532 108.084C156.335 108.094 156.18 108.042 156.067 107.93C155.955 107.817 155.898 107.676 155.898 107.507C155.898 107.376 155.94 107.263 156.025 107.169C156.1 107.066 156.222 107.01 156.391 107L156.827 106.958C157.287 106.921 157.639 106.761 157.883 106.479C158.128 106.198 158.25 105.813 158.25 105.325V98.6368C158.25 98.4209 158.306 98.2566 158.419 98.144C158.531 98.0314 158.691 97.975 158.897 97.975C159.104 97.975 159.263 98.0314 159.376 98.144C159.489 98.2566 159.545 98.4209 159.545 98.6368V105.325C159.545 105.879 159.446 106.353 159.249 106.747C159.062 107.132 158.78 107.437 158.404 107.662C158.029 107.878 157.56 108.009 156.996 108.056L156.532 108.084ZM163.953 108.127C163.483 108.127 163.056 108.033 162.671 107.845C162.296 107.657 162 107.404 161.784 107.085C161.578 106.766 161.475 106.409 161.475 106.015C161.475 105.508 161.601 105.109 161.855 104.818C162.108 104.527 162.535 104.32 163.136 104.198C163.737 104.067 164.544 104.001 165.558 104.001H166.22V104.818H165.586C164.863 104.818 164.291 104.851 163.868 104.916C163.455 104.982 163.164 105.1 162.995 105.268C162.826 105.428 162.742 105.653 162.742 105.944C162.742 106.31 162.869 106.611 163.122 106.845C163.385 107.08 163.742 107.197 164.192 107.197C164.549 107.197 164.863 107.113 165.135 106.944C165.408 106.766 165.624 106.531 165.783 106.24C165.943 105.94 166.023 105.597 166.023 105.212V103.593C166.023 103.039 165.91 102.64 165.685 102.396C165.459 102.143 165.079 102.016 164.544 102.016C164.234 102.016 163.915 102.058 163.587 102.143C163.258 102.227 162.916 102.359 162.559 102.537C162.418 102.603 162.296 102.626 162.193 102.607C162.089 102.579 162.005 102.523 161.939 102.438C161.883 102.345 161.85 102.246 161.841 102.143C161.841 102.03 161.864 101.922 161.911 101.819C161.967 101.716 162.061 101.641 162.193 101.594C162.606 101.387 163.014 101.242 163.418 101.157C163.831 101.063 164.216 101.016 164.572 101.016C165.182 101.016 165.685 101.115 166.079 101.312C166.473 101.5 166.769 101.795 166.966 102.199C167.163 102.593 167.262 103.1 167.262 103.72V107.437C167.262 107.653 167.21 107.817 167.107 107.93C167.003 108.042 166.853 108.099 166.656 108.099C166.468 108.099 166.318 108.042 166.206 107.93C166.102 107.817 166.051 107.653 166.051 107.437V106.437H166.177C166.102 106.784 165.961 107.085 165.755 107.338C165.548 107.592 165.29 107.789 164.981 107.93C164.68 108.061 164.338 108.127 163.953 108.127ZM171.814 108.099C171.636 108.099 171.481 108.052 171.349 107.958C171.218 107.864 171.105 107.714 171.011 107.507L168.618 101.932C168.552 101.772 168.529 101.626 168.547 101.495C168.566 101.364 168.627 101.256 168.73 101.171C168.843 101.087 168.993 101.044 169.181 101.044C169.34 101.044 169.467 101.082 169.561 101.157C169.655 101.232 169.744 101.364 169.829 101.551L172.039 107H171.645L173.912 101.551C173.987 101.364 174.071 101.232 174.165 101.157C174.268 101.082 174.409 101.044 174.588 101.044C174.747 101.044 174.869 101.087 174.954 101.171C175.048 101.256 175.104 101.364 175.123 101.495C175.141 101.626 175.113 101.767 175.038 101.917L172.631 107.507C172.546 107.714 172.433 107.864 172.293 107.958C172.161 108.052 172.002 108.099 171.814 108.099ZM178.541 108.127C178.072 108.127 177.645 108.033 177.26 107.845C176.885 107.657 176.589 107.404 176.373 107.085C176.167 106.766 176.063 106.409 176.063 106.015C176.063 105.508 176.19 105.109 176.444 104.818C176.697 104.527 177.124 104.32 177.725 104.198C178.326 104.067 179.133 104.001 180.147 104.001H180.808V104.818H180.175C179.452 104.818 178.879 104.851 178.457 104.916C178.044 104.982 177.753 105.1 177.584 105.268C177.415 105.428 177.331 105.653 177.331 105.944C177.331 106.31 177.457 106.611 177.711 106.845C177.974 107.08 178.33 107.197 178.781 107.197C179.138 107.197 179.452 107.113 179.724 106.944C179.996 106.766 180.212 106.531 180.372 106.24C180.531 105.94 180.611 105.597 180.611 105.212V103.593C180.611 103.039 180.499 102.64 180.273 102.396C180.048 102.143 179.668 102.016 179.133 102.016C178.823 102.016 178.504 102.058 178.175 102.143C177.847 102.227 177.504 102.359 177.148 102.537C177.007 102.603 176.885 102.626 176.781 102.607C176.678 102.579 176.594 102.523 176.528 102.438C176.472 102.345 176.439 102.246 176.429 102.143C176.429 102.03 176.453 101.922 176.5 101.819C176.556 101.716 176.65 101.641 176.781 101.594C177.195 101.387 177.603 101.242 178.006 101.157C178.419 101.063 178.804 101.016 179.161 101.016C179.771 101.016 180.273 101.115 180.668 101.312C181.062 101.5 181.357 101.795 181.555 102.199C181.752 102.593 181.85 103.1 181.85 103.72V107.437C181.85 107.653 181.799 107.817 181.695 107.93C181.592 108.042 181.442 108.099 181.245 108.099C181.057 108.099 180.907 108.042 180.794 107.93C180.691 107.817 180.639 107.653 180.639 107.437V106.437H180.766C180.691 106.784 180.55 107.085 180.344 107.338C180.137 107.592 179.879 107.789 179.569 107.93C179.269 108.061 178.926 108.127 178.541 108.127ZM187.288 108.127C186.847 108.127 186.42 108.089 186.007 108.014C185.594 107.948 185.204 107.845 184.838 107.704C184.472 107.564 184.143 107.39 183.853 107.183C183.73 107.099 183.641 106.996 183.585 106.874C183.538 106.752 183.524 106.634 183.543 106.522C183.571 106.4 183.623 106.296 183.698 106.212C183.782 106.127 183.881 106.076 183.993 106.057C184.106 106.038 184.228 106.076 184.359 106.17C184.791 106.461 185.242 106.672 185.711 106.803C186.19 106.935 186.715 107 187.288 107C188.114 107 188.719 106.85 189.104 106.55C189.499 106.249 189.696 105.855 189.696 105.367C189.696 104.963 189.555 104.649 189.273 104.424C188.992 104.189 188.518 104.006 187.851 103.875L186.359 103.565C185.476 103.377 184.815 103.067 184.373 102.636C183.942 102.204 183.726 101.626 183.726 100.904C183.726 100.463 183.815 100.064 183.993 99.7069C184.172 99.3408 184.425 99.0263 184.754 98.7635C185.082 98.5007 185.467 98.2989 185.908 98.1581C186.359 98.0173 186.856 97.9469 187.401 97.9469C187.983 97.9469 188.527 98.0267 189.034 98.1862C189.55 98.3458 190.015 98.5805 190.428 98.8902C190.541 98.9747 190.616 99.078 190.653 99.2C190.691 99.3126 190.695 99.4253 190.667 99.5379C190.648 99.6506 190.597 99.7444 190.512 99.8195C190.437 99.8946 190.339 99.9369 190.217 99.9462C190.104 99.9556 189.977 99.9134 189.837 99.8195C189.461 99.5567 189.076 99.369 188.682 99.2563C188.288 99.1343 187.856 99.0733 187.387 99.0733C186.908 99.0733 186.49 99.1484 186.133 99.2986C185.786 99.4487 185.514 99.6599 185.317 99.9322C185.129 100.195 185.035 100.505 185.035 100.861C185.035 101.293 185.167 101.631 185.429 101.875C185.692 102.119 186.133 102.307 186.753 102.438L188.231 102.734C189.17 102.931 189.865 103.236 190.315 103.649C190.775 104.053 191.005 104.597 191.005 105.283C191.005 105.714 190.916 106.104 190.738 106.451C190.569 106.799 190.325 107.099 190.005 107.352C189.686 107.596 189.297 107.789 188.837 107.93C188.377 108.061 187.861 108.127 187.288 108.127ZM195.541 108.127C194.847 108.127 194.246 107.981 193.739 107.69C193.232 107.39 192.843 106.972 192.57 106.437C192.298 105.893 192.162 105.254 192.162 104.522C192.162 103.978 192.237 103.49 192.387 103.058C192.547 102.626 192.772 102.26 193.063 101.96C193.354 101.65 193.706 101.415 194.119 101.256C194.542 101.096 195.016 101.016 195.541 101.016C195.87 101.016 196.217 101.068 196.583 101.171C196.949 101.274 197.287 101.443 197.597 101.678C197.7 101.753 197.766 101.842 197.794 101.946C197.822 102.039 197.822 102.138 197.794 102.241C197.775 102.345 197.728 102.434 197.653 102.509C197.588 102.575 197.498 102.612 197.386 102.621C197.282 102.631 197.17 102.598 197.048 102.523C196.822 102.354 196.583 102.232 196.33 102.157C196.086 102.082 195.851 102.044 195.626 102.044C195.278 102.044 194.969 102.1 194.696 102.213C194.434 102.326 194.208 102.49 194.021 102.706C193.842 102.912 193.706 103.171 193.612 103.48C193.518 103.781 193.471 104.133 193.471 104.536C193.471 105.334 193.659 105.963 194.035 106.423C194.41 106.874 194.94 107.099 195.626 107.099C195.851 107.099 196.086 107.066 196.33 107C196.574 106.925 196.813 106.803 197.048 106.634C197.17 106.559 197.282 106.531 197.386 106.55C197.489 106.559 197.573 106.601 197.639 106.676C197.714 106.742 197.761 106.827 197.78 106.93C197.799 107.024 197.789 107.122 197.752 107.226C197.724 107.329 197.658 107.413 197.555 107.479C197.254 107.704 196.926 107.869 196.569 107.972C196.212 108.075 195.87 108.127 195.541 108.127ZM199.777 108.099C199.561 108.099 199.397 108.042 199.284 107.93C199.172 107.817 199.115 107.653 199.115 107.437V101.692C199.115 101.476 199.172 101.317 199.284 101.213C199.397 101.101 199.552 101.044 199.749 101.044C199.946 101.044 200.096 101.101 200.199 101.213C200.312 101.317 200.368 101.476 200.368 101.692V102.776H200.228C200.378 102.213 200.659 101.786 201.072 101.495C201.485 101.204 202.006 101.04 202.635 101.002C202.786 100.993 202.908 101.03 203.001 101.115C203.095 101.19 203.147 101.321 203.156 101.509C203.166 101.687 203.123 101.833 203.03 101.946C202.936 102.049 202.79 102.11 202.593 102.129L202.34 102.143C201.72 102.208 201.241 102.41 200.903 102.748C200.575 103.086 200.411 103.551 200.411 104.142V107.437C200.411 107.653 200.354 107.817 200.242 107.93C200.138 108.042 199.984 108.099 199.777 108.099ZM204.891 108.07C204.694 108.07 204.539 108.009 204.427 107.887C204.314 107.765 204.258 107.596 204.258 107.38V101.763C204.258 101.537 204.314 101.368 204.427 101.256C204.539 101.134 204.694 101.073 204.891 101.073C205.098 101.073 205.258 101.134 205.37 101.256C205.483 101.368 205.539 101.537 205.539 101.763V107.38C205.539 107.596 205.483 107.765 205.37 107.887C205.267 108.009 205.107 108.07 204.891 108.07ZM204.891 99.552C204.638 99.552 204.436 99.4863 204.286 99.3549C204.145 99.2141 204.075 99.031 204.075 98.8058C204.075 98.5617 204.145 98.3787 204.286 98.2566C204.436 98.1252 204.638 98.0595 204.891 98.0595C205.164 98.0595 205.365 98.1252 205.497 98.2566C205.638 98.3787 205.708 98.5617 205.708 98.8058C205.708 99.031 205.638 99.2141 205.497 99.3549C205.365 99.4863 205.164 99.552 204.891 99.552ZM208.233 110.633C208.036 110.633 207.881 110.577 207.768 110.464C207.655 110.351 207.599 110.192 207.599 109.985V101.692C207.599 101.476 207.655 101.317 207.768 101.213C207.881 101.101 208.036 101.044 208.233 101.044C208.439 101.044 208.594 101.101 208.697 101.213C208.81 101.317 208.866 101.476 208.866 101.692V102.973L208.711 102.72C208.862 102.204 209.157 101.791 209.598 101.481C210.04 101.171 210.57 101.016 211.189 101.016C211.8 101.016 212.33 101.162 212.781 101.453C213.231 101.734 213.583 102.143 213.837 102.678C214.09 103.203 214.217 103.832 214.217 104.564C214.217 105.287 214.09 105.921 213.837 106.465C213.592 107 213.24 107.413 212.781 107.704C212.33 107.986 211.8 108.127 211.189 108.127C210.579 108.127 210.054 107.972 209.613 107.662C209.171 107.352 208.876 106.944 208.725 106.437H208.88V109.985C208.88 110.192 208.824 110.351 208.711 110.464C208.599 110.577 208.439 110.633 208.233 110.633ZM210.894 107.113C211.297 107.113 211.649 107.014 211.95 106.817C212.26 106.62 212.499 106.334 212.668 105.958C212.837 105.583 212.921 105.118 212.921 104.564C212.921 103.738 212.738 103.11 212.372 102.678C212.006 102.246 211.513 102.03 210.894 102.03C210.481 102.03 210.119 102.129 209.81 102.326C209.509 102.513 209.275 102.795 209.106 103.171C208.946 103.546 208.866 104.011 208.866 104.564C208.866 105.391 209.049 106.024 209.415 106.465C209.781 106.897 210.274 107.113 210.894 107.113ZM218.638 108.127C218.084 108.127 217.62 108.028 217.244 107.831C216.878 107.634 216.601 107.348 216.414 106.972C216.235 106.597 216.146 106.137 216.146 105.592V102.129H215.245C215.076 102.129 214.945 102.086 214.851 102.002C214.757 101.908 214.71 101.786 214.71 101.636C214.71 101.476 214.757 101.354 214.851 101.27C214.945 101.185 215.076 101.143 215.245 101.143H216.146V99.6083C216.146 99.3924 216.202 99.2329 216.315 99.1296C216.428 99.017 216.587 98.9606 216.794 98.9606C217 98.9606 217.155 99.017 217.258 99.1296C217.371 99.2329 217.427 99.3924 217.427 99.6083V101.143H219.131C219.309 101.143 219.446 101.185 219.539 101.27C219.633 101.354 219.68 101.476 219.68 101.636C219.68 101.786 219.633 101.908 219.539 102.002C219.446 102.086 219.309 102.129 219.131 102.129H217.427V105.48C217.427 105.996 217.535 106.385 217.751 106.648C217.967 106.911 218.324 107.043 218.821 107.043C219 107.043 219.15 107.028 219.272 107C219.394 106.963 219.502 106.944 219.596 106.944C219.68 106.935 219.751 106.963 219.807 107.028C219.873 107.094 219.905 107.216 219.905 107.395C219.905 107.526 219.882 107.648 219.835 107.761C219.798 107.864 219.718 107.934 219.596 107.972C219.483 108.009 219.333 108.042 219.145 108.07C218.957 108.108 218.788 108.127 218.638 108.127ZM226.694 108.127C226.225 108.127 225.798 108.033 225.413 107.845C225.037 107.657 224.742 107.404 224.526 107.085C224.319 106.766 224.216 106.409 224.216 106.015C224.216 105.508 224.343 105.109 224.596 104.818C224.85 104.527 225.277 104.32 225.877 104.198C226.478 104.067 227.285 104.001 228.299 104.001H228.961V104.818H228.327C227.604 104.818 227.032 104.851 226.61 104.916C226.196 104.982 225.906 105.1 225.737 105.268C225.568 105.428 225.483 105.653 225.483 105.944C225.483 106.31 225.61 106.611 225.863 106.845C226.126 107.08 226.483 107.197 226.933 107.197C227.29 107.197 227.604 107.113 227.877 106.944C228.149 106.766 228.365 106.531 228.524 106.24C228.684 105.94 228.764 105.597 228.764 105.212V103.593C228.764 103.039 228.651 102.64 228.426 102.396C228.201 102.143 227.82 102.016 227.285 102.016C226.976 102.016 226.656 102.058 226.328 102.143C225.999 102.227 225.657 102.359 225.3 102.537C225.159 102.603 225.037 102.626 224.934 102.607C224.831 102.579 224.746 102.523 224.681 102.438C224.624 102.345 224.591 102.246 224.582 102.143C224.582 102.03 224.605 101.922 224.652 101.819C224.709 101.716 224.803 101.641 224.934 101.594C225.347 101.387 225.755 101.242 226.159 101.157C226.572 101.063 226.957 101.016 227.314 101.016C227.924 101.016 228.426 101.115 228.82 101.312C229.214 101.5 229.51 101.795 229.707 102.199C229.904 102.593 230.003 103.1 230.003 103.72V107.437C230.003 107.653 229.951 107.817 229.848 107.93C229.745 108.042 229.594 108.099 229.397 108.099C229.21 108.099 229.059 108.042 228.947 107.93C228.844 107.817 228.792 107.653 228.792 107.437V106.437H228.919C228.844 106.784 228.703 107.085 228.496 107.338C228.29 107.592 228.032 107.789 227.722 107.93C227.421 108.061 227.079 108.127 226.694 108.127ZM232.653 108.099C232.456 108.099 232.301 108.042 232.188 107.93C232.075 107.817 232.019 107.653 232.019 107.437V101.692C232.019 101.476 232.075 101.317 232.188 101.213C232.301 101.101 232.456 101.044 232.653 101.044C232.85 101.044 233 101.101 233.103 101.213C233.216 101.317 233.272 101.476 233.272 101.692V102.847L233.117 102.636C233.314 102.1 233.634 101.697 234.075 101.425C234.525 101.152 235.037 101.016 235.609 101.016C236.163 101.016 236.619 101.115 236.975 101.312C237.332 101.509 237.599 101.809 237.778 102.213C237.956 102.617 238.045 103.128 238.045 103.748V107.437C238.045 107.653 237.989 107.817 237.876 107.93C237.773 108.042 237.618 108.099 237.412 108.099C237.205 108.099 237.046 108.042 236.933 107.93C236.82 107.817 236.764 107.653 236.764 107.437V103.818C236.764 103.208 236.647 102.762 236.412 102.481C236.177 102.199 235.802 102.058 235.286 102.058C234.685 102.058 234.201 102.246 233.835 102.621C233.479 102.988 233.3 103.485 233.3 104.114V107.437C233.3 107.878 233.084 108.099 232.653 108.099ZM242.695 108.127C242.095 108.127 241.564 107.986 241.104 107.704C240.654 107.413 240.302 107 240.048 106.465C239.795 105.921 239.668 105.287 239.668 104.564C239.668 103.832 239.79 103.203 240.034 102.678C240.288 102.143 240.64 101.734 241.09 101.453C241.55 101.162 242.085 101.016 242.695 101.016C243.306 101.016 243.831 101.171 244.272 101.481C244.714 101.781 245.009 102.185 245.159 102.692H245.005V98.6227C245.005 98.4068 245.056 98.2473 245.159 98.144C245.272 98.0314 245.432 97.975 245.638 97.975C245.845 97.975 246.004 98.0314 246.117 98.144C246.23 98.2473 246.286 98.4068 246.286 98.6227V107.437C246.286 107.653 246.23 107.817 246.117 107.93C246.004 108.042 245.845 108.099 245.638 108.099C245.441 108.099 245.286 108.042 245.174 107.93C245.061 107.817 245.005 107.653 245.005 107.437V106.156L245.159 106.409C245.019 106.935 244.723 107.352 244.272 107.662C243.831 107.972 243.306 108.127 242.695 108.127ZM242.991 107.113C243.404 107.113 243.761 107.014 244.061 106.817C244.371 106.62 244.606 106.334 244.765 105.958C244.934 105.583 245.019 105.118 245.019 104.564C245.019 103.738 244.836 103.11 244.47 102.678C244.103 102.246 243.611 102.03 242.991 102.03C242.588 102.03 242.231 102.129 241.921 102.326C241.621 102.513 241.386 102.795 241.217 103.171C241.048 103.546 240.964 104.011 240.964 104.564C240.964 105.391 241.147 106.024 241.513 106.465C241.888 106.897 242.381 107.113 242.991 107.113ZM252.828 108.099C252.622 108.099 252.462 108.042 252.35 107.93C252.237 107.808 252.181 107.639 252.181 107.423V98.7354C252.181 98.5195 252.237 98.3552 252.35 98.2426C252.472 98.1299 252.636 98.0736 252.842 98.0736H256.193C257.263 98.0736 258.085 98.3364 258.657 98.8621C259.239 99.3877 259.53 100.125 259.53 101.073C259.53 102.03 259.239 102.772 258.657 103.297C258.085 103.823 257.263 104.086 256.193 104.086H253.49V107.423C253.49 107.639 253.434 107.808 253.321 107.93C253.218 108.042 253.054 108.099 252.828 108.099ZM253.49 103.03H256.024C256.757 103.03 257.306 102.865 257.672 102.537C258.047 102.199 258.235 101.711 258.235 101.073C258.235 100.434 258.047 99.9556 257.672 99.6365C257.306 99.3079 256.757 99.1437 256.024 99.1437H253.49V103.03ZM262.567 110.633C262.417 110.633 262.29 110.591 262.187 110.506C262.093 110.431 262.037 110.323 262.018 110.182C262.009 110.051 262.037 109.91 262.103 109.76L263.06 107.592V108.127L260.399 101.932C260.333 101.772 260.31 101.626 260.329 101.495C260.347 101.364 260.408 101.256 260.512 101.171C260.624 101.087 260.774 101.044 260.962 101.044C261.122 101.044 261.248 101.082 261.342 101.157C261.436 101.232 261.525 101.364 261.61 101.551L263.82 107H263.426L265.679 101.551C265.754 101.364 265.843 101.232 265.946 101.157C266.05 101.082 266.191 101.044 266.369 101.044C266.528 101.044 266.65 101.087 266.735 101.171C266.829 101.256 266.885 101.364 266.904 101.495C266.923 101.626 266.895 101.767 266.819 101.917L263.271 110.126C263.177 110.323 263.079 110.455 262.976 110.52C262.882 110.595 262.746 110.633 262.567 110.633ZM271.259 108.127C270.706 108.127 270.241 108.028 269.866 107.831C269.499 107.634 269.223 107.348 269.035 106.972C268.857 106.597 268.767 106.137 268.767 105.592V102.129H267.866C267.697 102.129 267.566 102.086 267.472 102.002C267.378 101.908 267.331 101.786 267.331 101.636C267.331 101.476 267.378 101.354 267.472 101.27C267.566 101.185 267.697 101.143 267.866 101.143H268.767V99.6083C268.767 99.3924 268.824 99.2329 268.936 99.1296C269.049 99.017 269.209 98.9606 269.415 98.9606C269.622 98.9606 269.776 99.017 269.88 99.1296C269.992 99.2329 270.049 99.3924 270.049 99.6083V101.143H271.752C271.931 101.143 272.067 101.185 272.161 101.27C272.254 101.354 272.301 101.476 272.301 101.636C272.301 101.786 272.254 101.908 272.161 102.002C272.067 102.086 271.931 102.129 271.752 102.129H270.049V105.48C270.049 105.996 270.157 106.385 270.372 106.648C270.588 106.911 270.945 107.043 271.443 107.043C271.621 107.043 271.771 107.028 271.893 107C272.015 106.963 272.123 106.944 272.217 106.944C272.301 106.935 272.372 106.963 272.428 107.028C272.494 107.094 272.527 107.216 272.527 107.395C272.527 107.526 272.503 107.648 272.456 107.761C272.419 107.864 272.339 107.934 272.217 107.972C272.104 108.009 271.954 108.042 271.766 108.07C271.579 108.108 271.41 108.127 271.259 108.127ZM274.205 108.099C274.008 108.099 273.853 108.042 273.741 107.93C273.628 107.817 273.572 107.653 273.572 107.437V98.6227C273.572 98.4068 273.628 98.2473 273.741 98.144C273.853 98.0314 274.008 97.975 274.205 97.975C274.412 97.975 274.571 98.0314 274.684 98.144C274.797 98.2473 274.853 98.4068 274.853 98.6227V102.636H274.67C274.867 102.1 275.186 101.697 275.627 101.425C276.078 101.152 276.589 101.016 277.162 101.016C277.716 101.016 278.171 101.12 278.528 101.326C278.884 101.523 279.152 101.824 279.33 102.227C279.509 102.631 279.598 103.138 279.598 103.748V107.437C279.598 107.653 279.542 107.817 279.429 107.93C279.326 108.042 279.171 108.099 278.964 108.099C278.758 108.099 278.598 108.042 278.486 107.93C278.373 107.817 278.317 107.653 278.317 107.437V103.818C278.317 103.208 278.199 102.762 277.965 102.481C277.73 102.199 277.354 102.058 276.838 102.058C276.237 102.058 275.754 102.246 275.388 102.621C275.031 102.988 274.853 103.485 274.853 104.114V107.437C274.853 107.878 274.637 108.099 274.205 108.099ZM284.544 108.127C283.868 108.127 283.281 107.981 282.784 107.69C282.286 107.399 281.901 106.986 281.629 106.451C281.357 105.916 281.221 105.287 281.221 104.564C281.221 104.02 281.296 103.532 281.446 103.1C281.606 102.659 281.831 102.284 282.122 101.974C282.413 101.664 282.76 101.429 283.164 101.27C283.577 101.101 284.037 101.016 284.544 101.016C285.219 101.016 285.806 101.162 286.304 101.453C286.801 101.744 287.186 102.157 287.458 102.692C287.73 103.217 287.867 103.842 287.867 104.564C287.867 105.109 287.787 105.602 287.627 106.043C287.477 106.484 287.256 106.86 286.965 107.169C286.674 107.479 286.322 107.718 285.909 107.887C285.506 108.047 285.051 108.127 284.544 108.127ZM284.544 107.113C284.957 107.113 285.313 107.014 285.614 106.817C285.923 106.62 286.158 106.334 286.318 105.958C286.487 105.583 286.571 105.118 286.571 104.564C286.571 103.738 286.388 103.11 286.022 102.678C285.656 102.246 285.163 102.03 284.544 102.03C284.14 102.03 283.783 102.129 283.474 102.326C283.173 102.513 282.939 102.795 282.77 103.171C282.601 103.546 282.516 104.011 282.516 104.564C282.516 105.391 282.699 106.024 283.065 106.465C283.441 106.897 283.934 107.113 284.544 107.113ZM290.141 108.099C289.944 108.099 289.789 108.042 289.677 107.93C289.564 107.817 289.508 107.653 289.508 107.437V101.692C289.508 101.476 289.564 101.317 289.677 101.213C289.789 101.101 289.944 101.044 290.141 101.044C290.339 101.044 290.489 101.101 290.592 101.213C290.705 101.317 290.761 101.476 290.761 101.692V102.847L290.606 102.636C290.803 102.1 291.122 101.697 291.564 101.425C292.014 101.152 292.526 101.016 293.098 101.016C293.652 101.016 294.107 101.115 294.464 101.312C294.821 101.509 295.088 101.809 295.267 102.213C295.445 102.617 295.534 103.128 295.534 103.748V107.437C295.534 107.653 295.478 107.817 295.365 107.93C295.262 108.042 295.107 108.099 294.9 108.099C294.694 108.099 294.534 108.042 294.422 107.93C294.309 107.817 294.253 107.653 294.253 107.437V103.818C294.253 103.208 294.135 102.762 293.901 102.481C293.666 102.199 293.291 102.058 292.774 102.058C292.174 102.058 291.69 102.246 291.324 102.621C290.967 102.988 290.789 103.485 290.789 104.114V107.437C290.789 107.878 290.573 108.099 290.141 108.099ZM305.668 109.38C305.574 109.502 305.471 109.572 305.358 109.591C305.255 109.61 305.161 109.591 305.077 109.535C305.002 109.478 304.959 109.394 304.95 109.281C304.941 109.169 304.988 109.047 305.091 108.915C305.25 108.709 305.358 108.502 305.415 108.296C305.48 108.089 305.513 107.897 305.513 107.718L305.57 108.056C305.307 108.056 305.091 107.981 304.922 107.831C304.762 107.671 304.683 107.465 304.683 107.212C304.683 106.967 304.758 106.77 304.908 106.62C305.058 106.47 305.26 106.395 305.513 106.395C305.767 106.395 305.969 106.484 306.119 106.662C306.278 106.831 306.358 107.085 306.358 107.423C306.358 107.62 306.335 107.826 306.288 108.042C306.25 108.268 306.184 108.493 306.091 108.718C305.997 108.943 305.856 109.164 305.668 109.38ZM305.527 102.748C305.283 102.748 305.081 102.673 304.922 102.523C304.762 102.363 304.683 102.161 304.683 101.917C304.683 101.673 304.762 101.476 304.922 101.326C305.081 101.167 305.283 101.087 305.527 101.087C305.79 101.087 305.992 101.167 306.133 101.326C306.283 101.476 306.358 101.673 306.358 101.917C306.358 102.161 306.283 102.363 306.133 102.523C305.992 102.673 305.79 102.748 305.527 102.748ZM308.785 110.365C308.71 110.487 308.607 110.563 308.476 110.591C308.344 110.628 308.218 110.619 308.096 110.563C307.983 110.516 307.898 110.426 307.842 110.295C307.786 110.173 307.795 110.018 307.87 109.83C308.124 109.201 308.33 108.587 308.49 107.986C308.649 107.376 308.767 106.766 308.842 106.156C308.926 105.545 308.968 104.926 308.968 104.297C308.968 103.668 308.926 103.049 308.842 102.438C308.757 101.828 308.631 101.223 308.462 100.622C308.302 100.012 308.105 99.3924 307.87 98.7635C307.795 98.5758 307.786 98.4162 307.842 98.2848C307.898 98.1534 307.988 98.0642 308.11 98.0173C308.232 97.961 308.354 97.9516 308.476 97.9891C308.607 98.0173 308.71 98.0971 308.785 98.2285C309.32 99.1859 309.71 100.176 309.954 101.199C310.208 102.213 310.334 103.246 310.334 104.297C310.334 104.992 310.278 105.686 310.165 106.381C310.053 107.066 309.884 107.742 309.658 108.408C309.433 109.075 309.142 109.727 308.785 110.365Z" fill="#FF6C6C"/>
</svg>
